# xmcd CD database file generated by OrangeCD 6.5
#
# Track frame offsets:
#	150
#	15388
#	26378
#	37773
#	48965
#	64943
#	79098
#	91390
#	103743
#	116790
#	137693
#	151173
#	163098
#	177278
#	191395
#	202380
#	215273
#	227158
#	258778
#
# Disc length: 3608 seconds
#
# Revision: 3
# Processed by: cddbd v1.5.2PL0 Copyright (c) Steve Scherf et al.
# Submitted via: OrangeCD 6.5
#
DISCID=f60e1613
DTITLE=Various Artist - The Real Blues Brothers
DYEAR=1987
DGENRE=Blues
TTITLE0=Brownie McGee and Sonny Terry - Walk On
TTITLE1=Jimmy Reed - Baby What You Want Me To Do
TTITLE2=John Lee Hooker - Boom Boom Boom
TTITLE3=Eddie Taylor - Leave This Neigborhood
TTITLE4=John Lee Hooker - It Serves Me Right To Suffer
TTITLE5=Memphis Slim - Slim's Blues
TTITLE6=Pee Wee Crayton - I Love Her Still
TTITLE7=Jimmy Reed - Honest I Do
TTITLE8=John Lee Hooker - Whiskey And Wimmen
TTITLE9=Lightnin' Hopkins - Big Car Blues
TTITLE10=John Lee Hooker - Hobo Blues
TTITLE11=Roscoe Gordon - Jelly Jelly
TTITLE12=Pee Wee Crayton - Telephone Is Ringin'
TTITLE13=Memphis Slim - Mesin' Around With The Blues
TTITLE14=John Lee Hooker - No Shoes
TTITLE15=Jimmy Reid - You Got Me Dizzy
TTITLE16=Billy Boy Arnold - Rockinitus
TTITLE17=Lightnin' Hopkins - Blues For Gamblers
TTITLE18=Jimmy Reed - Hush Hush
EXTD=
EXTT0=
EXTT1=
EXTT2=
EXTT3=
EXTT4=
EXTT5=
EXTT6=
EXTT7=
EXTT8=
EXTT9=
EXTT10=
EXTT11=
EXTT12=
EXTT13=
EXTT14=
EXTT15=
EXTT16=
EXTT17=
EXTT18=
PLAYORDER=
